<?xml version="1.0" encoding="utf-8"?>
<!-- Generator: Adobe Illustrator 24.0.1, SVG Export Plug-In . SVG Version: 6.00 Build 0)  -->
<svg version="1.1" id="Capa_1" xmlns="http://www.w3.org/2000/svg" xmlns:xlink="http://www.w3.org/1999/xlink" x="0px" y="0px"
	 viewBox="0 0 367.5 367.5" style="enable-background:new 0 0 367.5 367.5;" xml:space="preserve">
<style type="text/css">
	.st0{fill:#FFFFFF;}
</style>
<g>
	<path class="st0" d="M183.7,0C82.4,0,0,82.4,0,183.7C0,285,82.4,367.4,183.7,367.4c101.3,0,183.7-82.4,183.7-183.7
		C367.5,82.4,285,0,183.7,0z M183.7,326.5c-78.7,0-142.8-64.1-142.8-142.8C40.9,105,105,40.9,183.7,40.9
		c78.8,0,142.8,64.1,142.8,142.8C326.5,262.5,262.5,326.5,183.7,326.5z"/>
	<path class="st0" d="M244,217c-11.7,20.1-33.6,32.6-57,32.6c-36.3,0-65.9-29.6-65.9-65.9c0-36.4,29.6-66,65.9-66
		c23.4,0,45.2,12.5,57,32.6l1.5,2.6h44.3l-2.7-7.1c-7.7-20.4-21.2-37.8-39.1-50.2c-17.9-12.4-39-19-61-19c-59,0-106.9,48-106.9,107
		c0,59,48,106.9,106.9,106.9c22,0,43-6.6,61-19c17.9-12.4,31.4-29.7,39.1-50.2l2.7-7.1h-44.3L244,217z"/>
</g>
</svg>
